<svg xmlns="http://www.w3.org/2000/svg" viewBox="0 0 64 64" width="64" height="64">
  <rect width="64" height="64" rx="8" fill="#1a2e1f"/>
  <!-- Falling symbols arrows -->
  <rect x="12" y="4" width="12" height="12" rx="2" fill="#d4af37" opacity="0.5"/>
  <rect x="40" y="4" width="12" height="12" rx="2" fill="#d4af37" opacity="0.5"/>
  <rect x="12" y="20" width="12" height="12" rx="2" fill="#d4af37" opacity="0.8"/>
  <rect x="40" y="20" width="12" height="12" rx="2" fill="#d4af37" opacity="0.8"/>
  <rect x="12" y="40" width="12" height="12" rx="2" fill="#d4af37"/>
  <rect x="26" y="40" width="12" height="12" rx="2" fill="#d4af37"/>
  <rect x="40" y="40" width="12" height="12" rx="2" fill="#d4af37"/>
  <!-- Down arrows -->
  <polygon points="18,16 22,16 20,20" fill="#c41e1e"/>
  <polygon points="46,16 50,16 48,20" fill="#c41e1e"/>
  <polygon points="18,32 22,32 20,36" fill="#c41e1e"/>
  <polygon points="46,32 50,32 48,36" fill="#c41e1e"/>
</svg>
